<svg width="50" height="50" viewBox="0 0 50 50" fill="none" xmlns="http://www.w3.org/2000/svg">
<path fill-rule="evenodd" clip-rule="evenodd" d="M19.7892 25.3137C19.7892 24.202 20.6093 23.2908 21.6481 23.2908C22.687 23.2908 23.5253 24.202 23.5071 25.3137C23.5071 26.4255 22.687 27.3367 21.6481 27.3367C20.6275 27.3367 19.7892 26.4255 19.7892 25.3137ZM26.4413 25.3137C26.4413 24.202 27.2614 23.2908 28.3003 23.2908C29.3391 23.2908 30.1592 24.202 30.1592 25.3137C30.1592 26.4255 29.3391 27.3367 28.3003 27.3367C27.2797 27.3367 26.4413 26.4255 26.4413 25.3137Z" fill="white"/>
<path fill-rule="evenodd" clip-rule="evenodd" d="M12.7361 8H37.1576C39.2171 8 40.8937 9.6767 40.8937 11.7543V44.45L36.9754 40.9873L34.7701 38.9461L32.4373 36.7773L33.4033 40.1489H12.7361C10.6767 40.1489 9 38.4722 9 36.3946V11.7543C9 9.6767 10.6767 8 12.7361 8ZM28.9199 30.3256C29.4667 31.0182 30.1228 31.8018 30.1228 31.8018C34.1505 31.6743 35.6996 29.0317 35.6996 29.0317C35.6996 23.1632 33.0752 18.4065 33.0752 18.4065C30.4508 16.4382 27.954 16.4929 27.954 16.4929L27.6989 16.7845C30.7971 17.7322 32.2369 19.099 32.2369 19.099C30.3415 18.0602 28.4825 17.5499 26.7512 17.3494C25.4389 17.2036 24.1814 17.2401 23.0697 17.3859C22.9742 17.3859 22.8927 17.3998 22.8007 17.4154C22.7874 17.4177 22.7738 17.42 22.7599 17.4223C22.122 17.477 20.5729 17.7139 18.6228 18.5705C17.9485 18.8803 17.5475 19.099 17.5475 19.099C17.5475 19.099 19.0602 17.6593 22.3407 16.7115L22.1585 16.4929C22.1585 16.4929 19.6616 16.4382 17.0372 18.4065C17.0372 18.4065 14.4128 23.1632 14.4128 29.0317C14.4128 29.0317 15.9437 31.6743 19.9715 31.8018C19.9715 31.8018 20.6458 30.9817 21.1925 30.2892C18.8779 29.5966 18.0031 28.1386 18.0031 28.1386C18.0031 28.1386 18.1854 28.2662 18.5135 28.4485C18.5317 28.4667 18.5499 28.4849 18.5863 28.5031C18.6137 28.5214 18.641 28.535 18.6684 28.5487C18.6957 28.5624 18.723 28.576 18.7504 28.5942C19.206 28.8494 19.6616 29.0499 20.0808 29.2139C20.828 29.5055 21.7211 29.7971 22.7599 29.9976C24.1267 30.2527 25.7305 30.3439 27.4802 30.0158C28.3367 29.87 29.2115 29.6149 30.1228 29.2321C30.7607 28.9952 31.4714 28.6489 32.2186 28.1568C32.2186 28.1568 31.3074 29.6513 28.9199 30.3256Z" fill="white"/>
</svg>
