<svg width="50" height="50" viewBox="0 0 50 50" fill="none" xmlns="http://www.w3.org/2000/svg">
<path fill-rule="evenodd" clip-rule="evenodd" d="M7 24.9434C7 32.8709 12.1571 39.5956 19.3098 41.9682C20.2104 42.1334 20.5385 41.5794 20.5385 41.1035C20.5385 40.6783 20.5231 39.5493 20.5142 38.0524C15.5074 39.1362 14.4511 35.6467 14.4511 35.6467C13.6322 33.5737 12.4521 33.0218 12.4521 33.0218C10.8178 31.9093 12.5759 31.9313 12.5759 31.9313C14.3825 32.058 15.3329 33.7808 15.3329 33.7808C16.9384 36.5224 19.5462 35.7304 20.5717 35.2711C20.7352 34.1123 21.2004 33.3214 21.7143 32.8731C17.7175 32.4204 13.5151 30.8805 13.5151 24.0049C13.5151 22.0465 14.2168 20.4438 15.3682 19.1903C15.1826 18.7365 14.5649 16.9113 15.545 14.4417C15.545 14.4417 17.0556 13.9593 20.4943 16.2812C21.9297 15.8825 23.4701 15.6842 25.0006 15.6765C26.5299 15.6842 28.0692 15.8825 29.5068 16.2812C32.9433 13.9593 34.4517 14.4417 34.4517 14.4417C35.434 16.9113 34.8163 18.7365 34.6318 19.1903C35.7854 20.4438 36.4816 22.0465 36.4816 24.0049C36.4816 30.8981 32.2726 32.4149 28.2636 32.8588C28.909 33.4129 29.4847 34.5077 29.4847 36.182C29.4847 38.58 29.4626 40.5153 29.4626 41.1035C29.4626 41.5838 29.7874 42.1422 30.7002 41.9671C37.8474 39.589 43 32.8687 43 24.9434C43 15.0332 34.9401 7 24.9983 7C15.0599 7 7 15.0332 7 24.9434Z" fill="white"/>
</svg>
