<svg width="50" height="50" viewBox="0 0 50 50" fill="none" xmlns="http://www.w3.org/2000/svg">
<mask id="mask0" mask-type="alpha" maskUnits="userSpaceOnUse" x="6" y="6" width="38" height="38">
<path fill-rule="evenodd" clip-rule="evenodd" d="M6 6.01184H43.5247V43.5321H6V6.01184Z" fill="white"/>
</mask>
<g mask="url(#mask0)">
<path fill-rule="evenodd" clip-rule="evenodd" d="M24.7624 6.01184C19.6668 6.01184 19.0279 6.03344 17.0267 6.12475C15.0296 6.21583 13.6657 6.53303 12.4723 6.99688C11.2385 7.47629 10.1922 8.11784 9.14905 9.16089C8.106 10.204 7.46445 11.2504 6.98504 12.4841C6.52119 13.6776 6.20399 15.0415 6.11291 17.0385C6.0216 19.0397 6 19.6787 6 24.7743C6 29.8698 6.0216 30.5087 6.11291 32.5099C6.20399 34.507 6.52119 35.8709 6.98504 37.0643C7.46445 38.2981 8.106 39.3444 9.14905 40.3875C10.1922 41.4306 11.2385 42.0721 12.4723 42.5516C13.6657 43.0154 15.0296 43.3326 17.0267 43.4237C19.0279 43.515 19.6668 43.5366 24.7624 43.5366C29.8579 43.5366 30.4969 43.515 32.4981 43.4237C34.4951 43.3326 35.859 43.0154 37.0524 42.5516C38.2862 42.0721 39.3326 41.4306 40.3757 40.3875C41.4187 39.3444 42.0603 38.2981 42.5398 37.0643C43.0036 35.8709 43.3207 34.507 43.4118 32.5099C43.5031 30.5087 43.5247 29.8698 43.5247 24.7743C43.5247 19.6787 43.5031 19.0397 43.4118 17.0385C43.3207 15.0415 43.0036 13.6776 42.5398 12.4841C42.0603 11.2504 41.4187 10.204 40.3757 9.16089C39.3326 8.11784 38.2862 7.47629 37.0524 6.99688C35.859 6.53303 34.4951 6.21583 32.4981 6.12475C30.4969 6.03344 29.8579 6.01184 24.7624 6.01184ZM24.7624 9.39244C29.7721 9.39244 30.3656 9.41158 32.344 9.50185C34.1733 9.58526 35.1667 9.89092 35.8279 10.1479C36.7037 10.4882 37.3287 10.8948 37.9852 11.5514C38.6418 12.2079 39.0484 12.8329 39.3887 13.7087C39.6457 14.3698 39.9513 15.3633 40.0347 17.1926C40.125 19.171 40.1441 19.7645 40.1441 24.7743C40.1441 29.784 40.125 30.3774 40.0347 32.3558C39.9513 34.1851 39.6457 35.1786 39.3887 35.8397C39.0484 36.7155 38.6418 37.3405 37.9852 37.997C37.3287 38.6536 36.7037 39.0602 35.8279 39.4006C35.1667 39.6575 34.1733 39.9632 32.344 40.0466C30.3659 40.1368 29.7725 40.156 24.7624 40.156C19.7522 40.156 19.159 40.1368 17.1808 40.0466C15.3515 39.9632 14.358 39.6575 13.6969 39.4006C12.8211 39.0602 12.1961 38.6536 11.5396 37.997C10.883 37.3405 10.4764 36.7155 10.136 35.8397C9.87908 35.1786 9.57342 34.1851 9.49001 32.3558C9.39974 30.3774 9.3806 29.784 9.3806 24.7743C9.3806 19.7645 9.39974 19.171 9.49001 17.1926C9.57342 15.3633 9.87908 14.3698 10.136 13.7087C10.4764 12.8329 10.883 12.2079 11.5396 11.5514C12.1961 10.8948 12.8211 10.4882 13.6969 10.1479C14.358 9.89092 15.3515 9.58526 17.1808 9.50185C19.1592 9.41158 19.7526 9.39244 24.7624 9.39244Z" fill="white"/>
</g>
<path fill-rule="evenodd" clip-rule="evenodd" d="M24.7624 31.0284C21.3083 31.0284 18.5083 28.2283 18.5083 24.7743C18.5083 21.3202 21.3083 18.5201 24.7624 18.5201C28.2165 18.5201 31.0165 21.3202 31.0165 24.7743C31.0165 28.2283 28.2165 31.0284 24.7624 31.0284ZM24.7624 15.1395C19.4413 15.1395 15.1277 19.4531 15.1277 24.7743C15.1277 30.0954 19.4413 34.409 24.7624 34.409C30.0836 34.409 34.3971 30.0954 34.3971 24.7743C34.3971 19.4531 30.0836 15.1395 24.7624 15.1395Z" fill="white"/>
<path fill-rule="evenodd" clip-rule="evenodd" d="M37.0292 14.7588C37.0292 16.0023 36.0212 17.0103 34.7777 17.0103C33.5343 17.0103 32.5262 16.0023 32.5262 14.7588C32.5262 13.5154 33.5343 12.5073 34.7777 12.5073C36.0212 12.5073 37.0292 13.5154 37.0292 14.7588Z" fill="white"/>
</svg>
