<svg width="55" height="55" viewBox="0 0 55 55" fill="none" xmlns="http://www.w3.org/2000/svg">
<rect opacity="0.01" width="54.675" height="54.675" fill="#292F33"/>
<path d="M18.7436 38.8296C31.6333 38.8296 38.6863 28.1406 38.6863 18.8869C38.6863 18.5862 38.6863 18.2855 38.6727 17.9847C40.0396 17.0006 41.2287 15.7567 42.1719 14.3489C40.9144 14.9093 39.5611 15.2783 38.1396 15.456C39.5885 14.5949 40.6957 13.2143 41.2287 11.5741C39.8755 12.3806 38.372 12.9546 36.7727 13.269C35.4879 11.9022 33.6699 11.0547 31.6606 11.0547C27.7924 11.0547 24.6485 14.1985 24.6485 18.0668C24.6485 18.6135 24.7169 19.1466 24.8262 19.666C19.0033 19.379 13.8366 16.5769 10.3784 12.3396C9.77694 13.3784 9.43522 14.5812 9.43522 15.8661C9.43522 18.2991 10.6791 20.4451 12.5517 21.7026C11.4035 21.6616 10.3237 21.3473 9.38055 20.8278C9.38055 20.8552 9.38055 20.8825 9.38055 20.9235C9.38055 24.3134 11.7999 27.1565 14.9984 27.7989C14.4106 27.9629 13.7956 28.0449 13.1531 28.0449C12.7021 28.0449 12.2647 28.0039 11.8409 27.9219C12.7294 30.7104 15.3265 32.7333 18.3883 32.788C15.9826 34.6743 12.9618 35.7951 9.68126 35.7951C9.12084 35.7951 8.56042 35.7678 8.01367 35.6994C11.1028 37.6677 14.7934 38.8296 18.7436 38.8296Z" fill="white"/>
</svg>
